<svg width="29" height="29" viewBox="0 0 29 29" fill="none" xmlns="http://www.w3.org/2000/svg">
<path d="M7.2204 22.8138C7.54196 22.3636 7.86351 21.9169 8.18333 21.465C10.1005 18.7587 12.0177 16.0541 13.9349 13.3479C13.9557 13.3183 13.9783 13.2888 13.9992 13.2592C14.0409 13.2766 14.0235 13.3096 14.0218 13.3339C14.0026 13.7702 14.0756 14.1995 14.1382 14.6289C14.1556 14.7418 14.1434 14.8392 14.0809 14.9417C12.892 16.8902 11.7066 18.8421 10.5229 20.7941C10.4794 20.8653 10.4273 20.8949 10.3508 20.9088C9.14453 21.1122 8.27893 22.0038 8.10512 23.2205C8.09121 23.3213 8.08947 23.4256 8.08774 23.5264C8.08774 23.5699 8.07557 23.5942 8.03038 23.6047C7.69839 23.6724 7.39248 23.8045 7.10221 23.9888C7.12654 23.3213 6.94925 22.7269 6.55121 22.202C5.67171 21.0444 4.01874 20.808 2.84723 21.6736C2.76495 21.7338 2.69659 21.7188 2.64212 21.6284C1.74698 20.1353 1.15949 18.5275 0.872691 16.812C0.717996 15.8838 0.658899 14.9469 0.702353 14.0083C0.83619 11.0587 1.79738 8.40283 3.62591 6.0824C5.56047 3.62814 8.05297 2.00992 11.0826 1.23123C12.4522 0.87839 13.8462 0.760198 15.2593 0.84189C16.5125 0.913154 17.731 1.15649 18.9181 1.56322C18.9651 1.57886 19.0102 1.59798 19.0589 1.6171C18.8295 1.83785 18.6 2.04642 18.3828 2.26891C17.2547 3.41782 16.3491 4.72491 15.6469 6.17452C15.607 6.25795 15.5566 6.30489 15.4662 6.33617C14.4633 6.67859 13.5751 7.2261 12.7338 7.85879C12.0368 8.38197 11.4232 8.99728 10.8131 9.61606C10.2587 10.1792 9.699 10.7389 9.14279 11.3003C9.11672 11.3264 9.09238 11.3525 9.04893 11.3994C10.695 11.276 12.3132 11.123 13.9349 11.0187C13.9522 11.0744 13.9157 11.1022 13.8984 11.1352C11.8526 14.6967 9.80502 18.2564 7.75749 21.8178C7.56977 22.1446 7.38379 22.4714 7.19607 22.7982C7.19259 22.8086 7.18738 22.8208 7.1839 22.8312C7.17521 22.8468 7.16478 22.8607 7.15609 22.8764C7.14566 22.8868 7.13697 22.8972 7.15088 22.9111C7.15609 22.9042 7.1613 22.8955 7.16826 22.8885C7.18042 22.8764 7.19259 22.8625 7.20476 22.8503C7.20997 22.8399 7.21519 22.8294 7.2204 22.8173V22.8138ZM7.13523 22.9424C7.13523 22.9424 7.13002 22.9355 7.12654 22.9337C7.12306 22.9372 7.11785 22.9389 7.11785 22.9424C7.11785 22.9459 7.12306 22.9494 7.1248 22.9511L7.13349 22.9424H7.13523Z" fill="#3D3D3D"/>
<path d="M25.7284 6.71338C25.9718 7.05753 26.1856 7.39995 26.3872 7.75105C27.2024 9.17807 27.7464 10.7042 28.0124 12.3241C28.1949 13.4365 28.2418 14.5559 28.1462 15.6787C27.8977 18.6249 26.8235 21.2321 24.908 23.4795C22.9683 25.7548 20.5314 27.2426 17.6235 27.9448C16.5928 28.1934 15.5464 28.3133 14.4844 28.3151C14.3784 28.3151 14.3384 28.3098 14.3714 28.1812C14.6808 26.9819 14.1333 25.7426 13.0417 25.1621C12.9479 25.1117 12.9461 25.0821 13.0017 24.9969C13.6588 23.9975 13.5632 22.6661 12.7706 21.7883C12.7028 21.7136 12.7097 21.6736 12.7654 21.5989C14.474 19.3028 16.1791 17.0032 17.8859 14.7054C18.0528 14.4794 18.2214 14.2535 18.4039 14.0066C18.8506 15.6979 19.2191 17.3821 19.638 19.0803C19.7388 18.8839 19.8274 18.7101 19.9161 18.538C20.3593 17.6707 20.8112 16.8085 21.2423 15.9377C21.8037 14.8027 22.1948 13.6086 22.3843 12.3537C22.4347 12.0217 22.4625 11.6862 22.4625 11.3508C22.4625 11.2882 22.4833 11.2447 22.5285 11.203C23.8704 9.91157 24.9463 8.42893 25.7319 6.71338H25.7284Z" fill="#3D3D3D"/>
<path d="M20.0849 15.3537C19.9632 14.8722 19.8502 14.4151 19.7303 13.9614C19.586 13.4122 19.4348 12.8647 19.2158 12.3398C19.1967 12.2946 19.1775 12.2494 19.1567 12.2059C19.0872 12.0599 19.0872 12.0616 18.9533 12.1416C18.0512 12.6822 17.137 13.1984 16.1619 13.5999C15.9272 13.6955 15.6873 13.7772 15.4405 13.838C15.3571 13.8589 15.3345 13.8432 15.3293 13.7598C15.3084 13.3774 15.3241 12.9985 15.3675 12.6196C15.4718 11.6827 15.6508 10.7615 15.8681 9.84552C15.889 9.75687 15.8577 9.73427 15.7742 9.72558C15.378 9.67865 14.9817 9.67691 14.5836 9.69082C13.8797 9.71515 13.1775 9.76556 12.4752 9.82292C12.4596 9.80554 12.4718 9.79337 12.4822 9.78294C13.4573 8.87041 14.5141 8.0813 15.7777 7.60157C15.9915 7.51987 16.2105 7.45382 16.4365 7.41384C16.4973 7.40342 16.5321 7.37387 16.5582 7.31303C17.3229 5.54882 18.3971 4.00534 19.8241 2.71216C21.2233 1.44505 22.8416 0.609004 24.7066 0.268327C24.8561 0.240517 25.0073 0.226611 25.155 0.197063C25.2332 0.181419 25.2593 0.197063 25.275 0.278756C25.3897 0.901012 25.4453 1.52675 25.4383 2.15943C25.4175 3.90453 24.9308 5.521 24.0965 7.04014C23.3421 8.41328 22.3775 9.61955 21.2007 10.6572C21.1556 10.6972 21.1243 10.732 21.1312 10.7998C21.2529 12.0512 20.9348 13.2262 20.5072 14.3803C20.3873 14.7054 20.2517 15.0252 20.0849 15.3554V15.3537ZM21.3172 6.89761C21.3172 6.38486 20.8931 5.96249 20.3856 5.96945C19.8832 5.9764 19.4626 6.39703 19.4626 6.89761C19.4626 7.40515 19.8902 7.831 20.396 7.82578C20.9018 7.82057 21.3172 7.40342 21.3155 6.89761H21.3172Z" fill="#3D3D3D"/>
<path d="M16.1633 14.9834C16.179 15.0321 16.139 15.0581 16.1181 15.0912C14.8597 17.1457 13.5995 19.1984 12.3394 21.2529C12.3064 21.3068 12.2872 21.3572 12.2038 21.3016C11.8162 21.0478 11.3904 20.907 10.9263 20.8827C10.895 20.8827 10.8602 20.8861 10.8237 20.8531C10.9072 20.7384 10.9889 20.6237 11.074 20.5107C12.3516 18.7865 13.6291 17.064 14.9049 15.3397C14.9536 15.2737 15.0057 15.2319 15.0891 15.218C15.4524 15.1624 15.8122 15.0859 16.1651 14.9869V14.9834H16.1633Z" fill="#3D3D3D"/>
<path d="M16.1646 14.9862C16.1646 14.9862 16.1678 14.9815 16.1709 14.98C16.1709 14.98 16.174 14.9831 16.1756 14.9847C16.1709 14.9847 16.1678 14.9847 16.1631 14.9847V14.9878L16.1646 14.9862Z" fill="#3D3D3D"/>
<path d="M7.15625 22.872C7.16479 22.8567 7.17503 22.843 7.18357 22.8276C7.1904 22.8345 7.19723 22.8396 7.20406 22.8464C7.19211 22.8584 7.18016 22.872 7.1682 22.884C7.16479 22.8806 7.15967 22.8755 7.15625 22.872Z" fill="#3D3D3D"/>
<path d="M7.22006 22.8135C7.21492 22.8238 7.20978 22.8341 7.20464 22.8461C7.19779 22.8392 7.19093 22.8341 7.18408 22.8272C7.18751 22.8169 7.19265 22.805 7.19607 22.7947C7.20293 22.8015 7.21149 22.8084 7.21834 22.8152L7.22006 22.8135Z" fill="#3D3D3D"/>
<path d="M7.16722 22.8844C7.16722 22.8844 7.15729 22.8993 7.15067 22.9059C7.13576 22.8927 7.1457 22.8827 7.15563 22.8728C7.15894 22.8761 7.16391 22.8811 7.16722 22.8844Z" fill="#3D3D3D"/>
<path d="M7.13404 22.9416L7.12604 22.9496L7.11963 22.9416C7.11963 22.9384 7.12443 22.9368 7.12764 22.9336C7.13084 22.9368 7.13244 22.94 7.13564 22.9416H7.13404Z" fill="#3D3D3D"/>
</svg>
