<svg width="25" height="25" viewBox="0 0 25 25" fill="none" xmlns="http://www.w3.org/2000/svg">
<g clip-path="url(#clip0_30_7997)">
<path d="M8.17969 10.3865C8.17969 9.8561 8.3904 9.3474 8.76547 8.97232C9.14055 8.59725 9.64925 8.38654 10.1797 8.38654H18.1797C18.7101 8.38654 19.2188 8.59725 19.5939 8.97232C19.969 9.3474 20.1797 9.8561 20.1797 10.3865V18.3865C20.1797 18.917 19.969 19.4257 19.5939 19.8007C19.2188 20.1758 18.7101 20.3865 18.1797 20.3865H10.1797C9.64925 20.3865 9.14055 20.1758 8.76547 19.8007C8.3904 19.4257 8.17969 18.917 8.17969 18.3865V10.3865Z" stroke="white" stroke-width="1.5" stroke-linecap="round" stroke-linejoin="round"/>
<path d="M16.1797 8.38654V6.38654C16.1797 5.8561 15.969 5.34739 15.5939 4.97232C15.2188 4.59725 14.7101 4.38654 14.1797 4.38654H6.17969C5.64925 4.38654 5.14055 4.59725 4.76547 4.97232C4.3904 5.34739 4.17969 5.8561 4.17969 6.38654V14.3865C4.17969 14.917 4.3904 15.4257 4.76547 15.8007C5.14055 16.1758 5.64925 16.3865 6.17969 16.3865H8.17969" stroke="white" stroke-width="1.5" stroke-linecap="round" stroke-linejoin="round"/>
</g>
<defs>
<clipPath id="clip0_30_7997">
<rect width="24" height="24" fill="white" transform="translate(0.179688 0.386536)"/>
</clipPath>
</defs>
</svg>
