<svg width="25" height="25" viewBox="0 0 25 25" fill="none" xmlns="http://www.w3.org/2000/svg">
<g clip-path="url(#clip0_30_7973)">
<path d="M8.01855 10.5152C8.01855 9.98476 8.22927 9.47606 8.60434 9.10098C8.97941 8.72591 9.48812 8.5152 10.0186 8.5152H18.0186C18.549 8.5152 19.0577 8.72591 19.4328 9.10098C19.8078 9.47606 20.0186 9.98476 20.0186 10.5152V18.5152C20.0186 19.0456 19.8078 19.5543 19.4328 19.9294C19.0577 20.3045 18.549 20.5152 18.0186 20.5152H10.0186C9.48812 20.5152 8.97941 20.3045 8.60434 19.9294C8.22927 19.5543 8.01855 19.0456 8.01855 18.5152V10.5152Z" stroke="#3D3D3D" stroke-width="1.5" stroke-linecap="round" stroke-linejoin="round"/>
<path d="M16.0186 8.5152V6.5152C16.0186 5.98476 15.8078 5.47606 15.4328 5.10098C15.0577 4.72591 14.549 4.5152 14.0186 4.5152H6.01855C5.48812 4.5152 4.97941 4.72591 4.60434 5.10098C4.22927 5.47606 4.01855 5.98476 4.01855 6.5152V14.5152C4.01855 15.0456 4.22927 15.5543 4.60434 15.9294C4.97941 16.3045 5.48812 16.5152 6.01855 16.5152H8.01855" stroke="#3D3D3D" stroke-width="1.5" stroke-linecap="round" stroke-linejoin="round"/>
</g>
<defs>
<clipPath id="clip0_30_7973">
<rect width="24" height="24" fill="white" transform="translate(0.0185547 0.515198)"/>
</clipPath>
</defs>
</svg>
