<svg width="25" height="39" viewBox="0 0 25 39" fill="none" xmlns="http://www.w3.org/2000/svg">
<path d="M13.2493 0.232422C16.7781 1.8831 20.1633 3.81063 23.6218 5.59599C24.2832 5.9372 24.5736 6.48942 24.5721 7.23768C24.5646 15.3025 24.5646 23.3673 24.5736 31.4321C24.5736 32.2372 24.2743 32.8164 23.5574 33.1905C20.4072 34.8397 17.2615 36.4964 14.1113 38.1455C13.8345 38.2907 13.5366 38.3925 13.2478 38.5137H11.6016C11.2529 38.3431 10.9013 38.18 10.5571 38.0004C7.6059 36.453 4.66671 34.8831 1.70059 33.3641C0.763757 32.8837 0.391121 32.2208 0.395611 31.1672C0.424045 23.3014 0.427038 15.4342 0.392617 7.56842C0.388128 6.50289 0.768247 5.85938 1.70208 5.38199C5.0169 3.69091 8.30627 1.95343 11.6046 0.232422C12.1539 0.232422 12.7016 0.232422 13.2508 0.232422H13.2493ZM23.0486 26.3768C23.0486 24.7591 23.0262 23.1398 23.0591 21.5221C23.0725 20.8741 22.9349 20.8172 22.3737 21.118C19.7652 22.5173 17.1283 23.8597 14.5199 25.2574C13.1251 26.0057 11.7902 25.9817 10.4014 25.2365C7.79446 23.8372 5.15757 22.4903 2.54613 21.0971C2.03431 20.8247 1.89813 20.8651 1.90262 21.4772C1.92507 24.7142 1.92357 27.9512 1.90262 31.1867C1.89962 31.6581 2.07023 31.887 2.4728 32.0951C5.25934 33.5287 8.05336 34.9504 10.801 36.4545C11.9743 37.0965 13.0069 37.0905 14.1712 36.4545C16.9203 34.9519 19.7054 33.5123 22.4889 32.0741C22.9364 31.8436 23.0681 31.5638 23.0591 31.0819C23.0306 29.5135 23.0486 27.9452 23.0486 26.3768ZM22.9513 6.92042C19.6994 5.21437 16.5986 3.57867 13.4903 1.96092C12.721 1.56134 11.9623 1.68705 11.208 2.08513C8.39607 3.57418 5.57361 5.04527 2.75863 6.52982C2.55361 6.63758 2.2977 6.68995 2.14655 6.95634C2.25879 7.02817 2.35457 7.1 2.45933 7.15537C5.42994 8.71775 8.39756 10.2861 11.3742 11.8365C12.1284 12.2301 12.9021 12.1987 13.6624 11.7991C15.5106 10.8249 17.3618 9.85961 19.2115 8.88836C20.4177 8.25533 21.6209 7.6193 22.9513 6.91743V6.92042ZM2.00887 19.1366C5.30124 20.8636 8.46491 22.5247 11.7408 24.2428C11.7408 20.8995 11.7378 17.6939 11.7438 14.4884C11.7438 14.0559 11.5582 14.1172 11.2889 14.2639C10.807 14.5243 10.3191 14.7727 9.83423 15.0271C7.25721 16.38 4.68018 17.7329 2.00887 19.1366ZM13.2403 24.2338C16.5162 22.5143 19.6799 20.8531 22.9034 19.1605C22.6939 19.0274 22.5562 18.9271 22.4066 18.8478C19.5647 17.3527 16.7153 15.8772 13.8868 14.3582C13.2553 14.02 13.2269 14.2385 13.2314 14.7982C13.2523 17.2151 13.2403 19.632 13.2403 22.0474C13.2403 22.7343 13.2403 23.4212 13.2403 24.2338ZM14.6171 12.9889C14.6995 13.0667 14.7429 13.131 14.8042 13.1639C17.4022 14.5318 20.0047 15.8906 22.5966 17.2674C23.0636 17.5159 23.074 17.2929 23.0725 16.9247C23.0651 14.6081 23.0696 12.293 23.0696 9.97634C23.0696 9.54084 23.0696 9.10386 23.0696 8.55313C20.1738 10.0736 17.4052 11.5267 14.6186 12.9889H14.6171ZM1.96397 8.58755V17.4695C4.80888 15.9759 7.57297 14.5243 10.4194 13.0293C7.56848 11.5327 4.80589 10.0811 1.96397 8.58755Z" fill="#3D3D3D"/>
</svg>
