<svg width="25" height="25" viewBox="0 0 25 25" fill="none" xmlns="http://www.w3.org/2000/svg">
<g clip-path="url(#clip0_30_7389)">
<path d="M3.17139 12.2186C3.17139 13.4005 3.40418 14.5708 3.85647 15.6627C4.30876 16.7547 4.9717 17.7468 5.80743 18.5826C6.64315 19.4183 7.63531 20.0812 8.72724 20.5335C9.81917 20.9858 10.9895 21.2186 12.1714 21.2186C13.3533 21.2186 14.5236 20.9858 15.6155 20.5335C16.7075 20.0812 17.6996 19.4183 18.5353 18.5826C19.3711 17.7468 20.034 16.7547 20.4863 15.6627C20.9386 14.5708 21.1714 13.4005 21.1714 12.2186C21.1714 11.0367 20.9386 9.86638 20.4863 8.77445C20.034 7.68252 19.3711 6.69036 18.5353 5.85464C17.6996 5.01891 16.7075 4.35597 15.6155 3.90368C14.5236 3.45139 13.3533 3.2186 12.1714 3.2186C10.9895 3.2186 9.81917 3.45139 8.72724 3.90368C7.63531 4.35597 6.64315 5.01891 5.80743 5.85464C4.9717 6.69036 4.30876 7.68252 3.85647 8.77445C3.40418 9.86638 3.17139 11.0367 3.17139 12.2186Z" stroke="white" stroke-width="1.5" stroke-linecap="round" stroke-linejoin="round"/>
<path d="M9.17139 10.2186C9.17139 11.0142 9.48746 11.7773 10.0501 12.3399C10.6127 12.9025 11.3757 13.2186 12.1714 13.2186C12.967 13.2186 13.7301 12.9025 14.2927 12.3399C14.8553 11.7773 15.1714 11.0142 15.1714 10.2186C15.1714 9.42295 14.8553 8.65989 14.2927 8.09728C13.7301 7.53467 12.967 7.2186 12.1714 7.2186C11.3757 7.2186 10.6127 7.53467 10.0501 8.09728C9.48746 8.65989 9.17139 9.42295 9.17139 10.2186Z" stroke="white" stroke-width="1.5" stroke-linecap="round" stroke-linejoin="round"/>
<path d="M6.33936 19.0676C6.58686 18.2438 7.09332 17.5218 7.7836 17.0086C8.47388 16.4954 9.3112 16.2183 10.1714 16.2186H14.1714C15.0326 16.2183 15.871 16.496 16.5617 17.0104C17.2525 17.5248 17.7588 18.2484 18.0054 19.0736" stroke="white" stroke-width="1.5" stroke-linecap="round" stroke-linejoin="round"/>
</g>
<defs>
<clipPath id="clip0_30_7389">
<rect width="24" height="24" fill="white" transform="translate(0.171387 0.218597)"/>
</clipPath>
</defs>
</svg>
