<svg width="40" height="35" viewBox="0 0 40 35" fill="none" xmlns="http://www.w3.org/2000/svg">
<path d="M22.254 21.8761C22.254 22.8758 22.254 23.8469 22.254 24.8163C22.254 25.1882 22.2607 25.5602 22.2506 25.9304C22.2473 26.0802 22.2978 26.1644 22.429 26.2401C24.5849 27.4855 26.7375 28.7326 28.8883 29.9881C29.0465 30.0806 29.1559 30.0621 29.3023 29.9763C31.4347 28.7343 33.567 27.4939 35.7044 26.262C35.8558 26.1745 35.9147 26.0819 35.9147 25.9035C35.908 23.4228 35.908 20.9421 35.9147 18.4597C35.9147 18.2645 35.8373 18.1702 35.6825 18.081C33.5653 16.8575 31.4498 15.6306 29.3393 14.3936C29.1374 14.2741 28.996 14.301 28.8058 14.4121C23.6879 17.3826 18.5599 20.3345 13.452 23.3218C12.1259 24.0977 10.8905 24.1078 9.57109 23.3201C7.21829 21.9148 4.83014 20.5701 2.46051 19.1951C1.36994 18.5607 0.807826 17.6098 0.806143 16.3408C0.80446 13.4562 0.802777 10.5699 0.806143 7.68526C0.806143 6.41629 1.37162 5.46541 2.46556 4.83261C4.94122 3.39871 7.42193 1.97491 9.89927 0.544381C10.9865 -0.08337 12.0754 -0.101883 13.1643 0.525868C15.6635 1.96145 18.161 3.40039 20.6569 4.84271C21.7306 5.46373 22.2708 6.40956 22.2995 7.64318C22.3163 8.37528 22.2978 9.10737 22.3079 9.83947C22.3096 10.0179 22.2422 10.1121 22.0924 10.1979C20.943 10.8493 19.7969 11.5056 18.6558 12.1704C18.4286 12.3033 18.3714 12.2697 18.3748 12.0071C18.3848 10.7836 18.3748 9.55841 18.3832 8.33489C18.3832 8.13798 18.3276 8.02185 18.1509 7.91919C16.0236 6.6923 13.898 5.45868 11.7775 4.21832C11.6024 4.11566 11.4762 4.12239 11.3046 4.22169C9.19242 5.45531 7.0786 6.68389 4.95973 7.90404C4.75946 8.02017 4.70055 8.15144 4.70055 8.37191C4.70729 10.7988 4.70729 13.2239 4.70055 15.6508C4.70055 15.878 4.7746 16.0008 4.96983 16.1136C7.07019 17.3237 9.16718 18.5388 11.2591 19.7623C11.4611 19.8801 11.6041 19.8969 11.8179 19.7724C17.0099 16.7565 22.2086 13.7507 27.4022 10.7382C28.545 10.0751 29.6793 10.0717 30.8187 10.7314C33.2573 12.1418 35.6943 13.5538 38.1329 14.9625C39.2858 15.6272 39.8546 16.6168 39.8495 17.9514C39.8411 20.7822 39.8445 23.613 39.8479 26.4437C39.8479 27.7379 39.2908 28.7124 38.175 29.3586C35.7094 30.7858 33.2354 32.2012 30.7699 33.6284C29.6457 34.278 28.5416 34.2713 27.4191 33.6199C24.9653 32.1945 22.5014 30.7824 20.0409 29.3671C18.9184 28.7225 18.3613 27.7497 18.3478 26.4622C18.3411 25.7621 18.3478 25.0637 18.3445 24.3636C18.3445 24.2138 18.3596 24.0993 18.5128 24.0101C19.706 23.3252 20.8942 22.6318 22.084 21.9434C22.1278 21.9182 22.18 21.9081 22.2607 21.8795L22.254 21.8761Z" fill="#3D3D3D"/>
</svg>
