<svg width="89" height="88" viewBox="0 0 89 88" fill="none" xmlns="http://www.w3.org/2000/svg">
<g opacity="0.3" filter="url(#filter0_f_30_7299)">
<path d="M43.6559 16.1313C44.2129 16.0811 44.7732 16.0811 45.3302 16.1313L47.0082 16.2823C47.5651 16.3324 48.1164 16.4325 48.6555 16.5812L50.2796 17.0294C50.8186 17.1782 51.3432 17.3751 51.8471 17.6177L53.365 18.3487C53.8688 18.5914 54.3498 18.8788 54.8023 19.2075L56.1653 20.1977C56.6177 20.5264 57.0397 20.8951 57.4261 21.2993L58.5904 22.5171C58.9768 22.9212 59.3262 23.3593 59.6343 23.826L60.5624 25.2321C60.8705 25.6988 61.136 26.1922 61.3558 26.7064L62.018 28.2556C62.2377 28.7699 62.4109 29.3028 62.5353 29.848L62.9102 31.4905C63.0347 32.0357 63.1099 32.5909 63.135 33.1496L63.2106 34.8327C63.2356 35.3913 63.2105 35.9511 63.1354 36.5052L62.9093 38.1748C62.8342 38.7289 62.7095 39.2752 62.5367 39.8071L62.0161 41.4094C61.8433 41.9412 61.6231 42.4565 61.3581 42.9489L60.5597 44.4325C60.2947 44.9249 59.986 45.3926 59.6374 45.8298L58.5869 47.147C58.2383 47.5842 57.851 47.9892 57.4299 48.3572L56.1612 49.4656C55.74 49.8336 55.2867 50.1629 54.8067 50.4497L53.3603 51.3139C52.8803 51.6007 52.3755 51.8438 51.8519 52.0403L50.2746 52.6323C49.751 52.8288 49.2109 52.9778 48.6606 53.0777L47.0029 53.3785C46.4527 53.4784 45.8946 53.5286 45.3354 53.5286H43.6506C43.0914 53.5286 42.5334 53.4784 41.9831 53.3785L40.3254 53.0777C39.7752 52.9778 39.2351 52.8288 38.7115 52.6323L37.1341 52.0403C36.6106 51.8438 36.1058 51.6007 35.6257 51.3139L34.1794 50.4497C33.6994 50.1629 33.246 49.8336 32.8249 49.4656L31.5562 48.3572C31.135 47.9892 30.7478 47.5842 30.3991 47.147L29.3487 45.8298C29 45.3926 28.6913 44.9249 28.4264 44.4325L27.628 42.9489C27.363 42.4565 27.1428 41.9412 26.97 41.4094L26.4493 39.8071C26.2765 39.2752 26.1519 38.7289 26.0768 38.1748L25.8506 36.5052C25.7756 35.9511 25.7504 35.3913 25.7755 34.8327L25.8511 33.1496C25.8762 32.5909 25.9514 32.0357 26.0758 31.4905L26.4507 29.848C26.5752 29.3028 26.7483 28.7699 26.9681 28.2556L27.6303 26.7064C27.8501 26.1922 28.1156 25.6988 28.4237 25.2321L29.3518 23.826C29.6599 23.3593 30.0092 22.9212 30.3957 22.5171L31.56 21.2993C31.9464 20.8951 32.3684 20.5264 32.8208 20.1977L34.1838 19.2075C34.6362 18.8788 35.1172 18.5914 35.6211 18.3487L37.139 17.6177C37.6428 17.3751 38.1674 17.1782 38.7065 17.0294L40.3306 16.5812C40.8696 16.4325 41.421 16.3324 41.9779 16.2823L43.6559 16.1313Z" fill="#9747FF"/>
</g>
<g opacity="0.4" filter="url(#filter1_f_30_7299)">
<path d="M43.6561 23.9136C44.2131 23.8635 44.7734 23.8635 45.3304 23.9136L47.2863 24.0896C47.8433 24.1398 48.3946 24.2398 48.9336 24.3886L50.8267 24.911C51.3657 25.0598 51.8903 25.2567 52.3942 25.4993L54.1635 26.3514C54.6674 26.594 55.1484 26.8814 55.6008 27.2101L57.1896 28.3644C57.642 28.6931 58.0639 29.0618 58.4504 29.466L59.8075 30.8854C60.194 31.2896 60.5433 31.7277 60.8514 32.1944L61.9332 33.8334C62.2413 34.3001 62.5068 34.7935 62.7266 35.3077L63.4985 37.1135C63.7182 37.6277 63.8914 38.1606 64.0158 38.7058L64.4528 40.6204C64.5773 41.1656 64.6525 41.7208 64.6776 42.2795L64.7657 44.2413C64.7908 44.8 64.7656 45.3597 64.6906 45.9139L64.4269 47.8599C64.3519 48.4141 64.2272 48.9604 64.0544 49.4922L63.4475 51.3599C63.2747 51.8918 63.0545 52.407 62.7895 52.8994L61.8589 54.6288C61.5939 55.1212 61.2852 55.5889 60.9366 56.0261L59.7121 57.5614C59.3635 57.9986 58.9763 58.4037 58.5551 58.7716L57.0762 60.0637C56.6551 60.4316 56.2018 60.7609 55.7217 61.0478L54.0359 62.055C53.5558 62.3418 53.051 62.5849 52.5275 62.7814L50.6888 63.4715C50.1653 63.668 49.6252 63.817 49.0749 63.9169L47.1427 64.2675C46.5924 64.3674 46.0344 64.4176 45.4752 64.4176H43.5113C42.9521 64.4176 42.394 64.3674 41.8438 64.2675L39.9116 63.9169C39.3613 63.817 38.8212 63.668 38.2977 63.4715L36.459 62.7814C35.9355 62.5849 35.4307 62.3418 34.9506 62.055L33.2648 61.0478C32.7847 60.7609 32.3314 60.4316 31.9103 60.0637L30.4314 58.7716C30.0102 58.4037 29.623 57.9986 29.2743 57.5614L28.0499 56.0261C27.7013 55.5889 27.3926 55.1212 27.1276 54.6288L26.197 52.8994C25.932 52.407 25.7118 51.8918 25.539 51.3599L24.9321 49.4922C24.7593 48.9604 24.6346 48.4141 24.5596 47.8599L24.2959 45.9139C24.2209 45.3597 24.1957 44.8 24.2208 44.2413L24.3089 42.2795C24.334 41.7208 24.4092 41.1656 24.5337 40.6204L24.9707 38.7058C25.0951 38.1606 25.2683 37.6277 25.488 37.1135L26.2599 35.3077C26.4797 34.7935 26.7452 34.3001 27.0532 33.8334L28.1351 32.1944C28.4432 31.7277 28.7925 31.2896 29.179 30.8854L30.5361 29.466C30.9226 29.0618 31.3445 28.6931 31.7969 28.3644L33.3857 27.2101C33.8381 26.8814 34.3191 26.594 34.823 26.3514L36.5923 25.4993C37.0961 25.2567 37.6207 25.0598 38.1598 24.911L40.0529 24.3886C40.5919 24.2398 41.1432 24.1398 41.7002 24.0896L43.6561 23.9136Z" fill="#9747FF"/>
</g>
<path d="M43.6563 3.67953C44.2132 3.62941 44.7736 3.62941 45.3305 3.67953L48.1202 3.93061C48.6772 3.98073 49.2285 4.08079 49.7675 4.22956L52.4676 4.97471C53.0066 5.12348 53.5312 5.32037 54.035 5.563L56.5586 6.77829C57.0624 7.02092 57.5435 7.30831 57.9959 7.63701L60.2619 9.28337C60.7143 9.61206 61.1363 9.98072 61.5227 10.3849L63.4583 12.4094C63.8448 12.8136 64.1942 13.2517 64.5022 13.7184L66.0453 16.056C66.3533 16.5227 66.6188 17.0161 66.8386 17.5303L67.9395 20.1059C68.1593 20.6201 68.3324 21.153 68.4568 21.6982L69.0801 24.4289C69.2046 24.9741 69.2798 25.5294 69.3049 26.088L69.4305 28.8862C69.4556 29.4448 69.4305 30.0046 69.3554 30.5587L68.9794 33.3343C68.9044 33.8885 68.7797 34.4347 68.6069 34.9666L67.7413 37.6304C67.5685 38.1623 67.3483 38.6775 67.0833 39.17L65.756 41.6365C65.491 42.1289 65.1823 42.5965 64.8337 43.0337L63.0873 45.2236C62.7387 45.6608 62.3514 46.0658 61.9303 46.4338L59.821 48.2766C59.3999 48.6445 58.9466 48.9739 58.4665 49.2607L56.062 50.6973C55.582 50.9841 55.0771 51.2273 54.5536 51.4237L51.9312 52.4079C51.4077 52.6044 50.8675 52.7535 50.3173 52.8533L47.5614 53.3535C47.0112 53.4533 46.4531 53.5036 45.8939 53.5036H43.0929C42.5337 53.5036 41.9756 53.4533 41.4254 53.3535L38.6695 52.8533C38.1193 52.7535 37.5791 52.6044 37.0556 52.4079L34.4332 51.4237C33.9097 51.2273 33.4048 50.9841 32.9248 50.6973L30.5203 49.2607C30.0402 48.9739 29.5869 48.6445 29.1658 48.2766L27.0565 46.4338C26.6354 46.0658 26.2481 45.6608 25.8995 45.2236L24.1531 43.0337C23.8045 42.5965 23.4958 42.1289 23.2308 41.6365L21.9035 39.17C21.6385 38.6775 21.4183 38.1623 21.2455 37.6304L20.3799 34.9666C20.2071 34.4347 20.0824 33.8885 20.0074 33.3343L19.6314 30.5587C19.5563 30.0046 19.5312 29.4448 19.5563 28.8862L19.6819 26.088C19.707 25.5294 19.7822 24.9741 19.9067 24.4289L20.53 21.6982C20.6544 21.153 20.8275 20.6201 21.0473 20.1059L22.1482 17.5303C22.3679 17.0161 22.6335 16.5227 22.9415 16.056L24.4846 13.7184C24.7926 13.2517 25.142 12.8136 25.5285 12.4094L27.4641 10.3849C27.8505 9.98073 28.2725 9.61206 28.7249 9.28337L30.9909 7.63701C31.4433 7.30831 31.9244 7.02092 32.4282 6.77829L34.9518 5.563C35.4556 5.32037 35.9802 5.12348 36.5192 4.97471L39.2193 4.22956C39.7583 4.08079 40.3096 3.98073 40.8666 3.93061L43.6563 3.67953Z" fill="url(#paint0_linear_30_7299)"/>
<g clip-path="url(#clip0_30_7299)">
<path d="M29.9136 28.5077C29.9136 30.4096 30.2882 32.2929 31.016 34.0501C31.7439 35.8072 32.8107 37.4038 34.1555 38.7487C35.5004 40.0936 37.097 41.1604 38.8542 41.8882C40.6113 42.616 42.4946 42.9907 44.3966 42.9907C46.2985 42.9907 48.1818 42.616 49.939 41.8882C51.6961 41.1604 53.2927 40.0936 54.6376 38.7487C55.9825 37.4038 57.0493 35.8072 57.7771 34.0501C58.505 32.2929 58.8796 30.4096 58.8796 28.5077C58.8796 26.6057 58.505 24.7224 57.7771 22.9653C57.0493 21.2081 55.9825 19.6115 54.6376 18.2666C53.2927 16.9218 51.6961 15.855 49.939 15.1271C48.1818 14.3993 46.2985 14.0247 44.3966 14.0247C42.4946 14.0247 40.6113 14.3993 38.8542 15.1271C37.097 15.855 35.5004 16.9218 34.1555 18.2666C32.8107 19.6115 31.7439 21.2081 31.016 22.9653C30.2882 24.7224 29.9136 26.6057 29.9136 28.5077Z" stroke="white" stroke-width="2.41383" stroke-linecap="round" stroke-linejoin="round"/>
<path d="M39.5688 25.2892C39.5688 26.5696 40.0775 27.7975 40.9828 28.7029C41.8882 29.6083 43.1161 30.1169 44.3965 30.1169C45.6769 30.1169 46.9048 29.6083 47.8102 28.7029C48.7156 27.7975 49.2242 26.5696 49.2242 25.2892C49.2242 24.0088 48.7156 22.7809 47.8102 21.8755C46.9048 20.9702 45.6769 20.4615 44.3965 20.4615C43.1161 20.4615 41.8882 20.9702 40.9828 21.8755C40.0775 22.7809 39.5688 24.0088 39.5688 25.2892Z" stroke="white" stroke-width="2.41383" stroke-linecap="round" stroke-linejoin="round"/>
<path d="M35.0117 39.5292C35.41 38.2036 36.225 37.0417 37.3358 36.2158C38.4466 35.3899 39.7941 34.9441 41.1783 34.9445H47.6151C49.0011 34.9441 50.3502 35.3909 51.4618 36.2187C52.5734 37.0465 53.3882 38.2109 53.7849 39.5389" stroke="white" stroke-width="2.41383" stroke-linecap="round" stroke-linejoin="round"/>
</g>
<defs>
<filter id="filter0_f_30_7299" x="16.4273" y="6.75486" width="56.1312" height="56.1125" filterUnits="userSpaceOnUse" color-interpolation-filters="sRGB">
<feFlood flood-opacity="0" result="BackgroundImageFix"/>
<feBlend mode="normal" in="SourceGraphic" in2="BackgroundImageFix" result="shape"/>
<feGaussianBlur stdDeviation="4.6694" result="effect1_foregroundBlur_30_7299"/>
</filter>
<filter id="filter1_f_30_7299" x="0.86442" y="0.529001" width="87.2575" height="87.2356" filterUnits="userSpaceOnUse" color-interpolation-filters="sRGB">
<feFlood flood-opacity="0" result="BackgroundImageFix"/>
<feBlend mode="normal" in="SourceGraphic" in2="BackgroundImageFix" result="shape"/>
<feGaussianBlur stdDeviation="11.6735" result="effect1_foregroundBlur_30_7299"/>
</filter>
<linearGradient id="paint0_linear_30_7299" x1="44.4934" y1="3.64194" x2="44.4934" y2="53.5036" gradientUnits="userSpaceOnUse">
<stop stop-color="#3483FF"/>
<stop offset="1" stop-color="#47FF91"/>
</linearGradient>
<clipPath id="clip0_30_7299">
<rect width="38.6213" height="38.6213" fill="white" transform="translate(25.0859 9.19699)"/>
</clipPath>
</defs>
</svg>
