<svg width="25" height="25" viewBox="0 0 25 25" fill="none" xmlns="http://www.w3.org/2000/svg">
<g clip-path="url(#clip0_34_10255)">
<path d="M3.41797 12.4722C3.41797 13.6541 3.65076 14.8244 4.10305 15.9163C4.55535 17.0082 5.21828 18.0004 6.05401 18.8361C6.88973 19.6719 7.88189 20.3348 8.97382 20.7871C10.0657 21.2394 11.2361 21.4722 12.418 21.4722C13.5999 21.4722 14.7702 21.2394 15.8621 20.7871C16.954 20.3348 17.9462 19.6719 18.7819 18.8361C19.6177 18.0004 20.2806 17.0082 20.7329 15.9163C21.1852 14.8244 21.418 13.6541 21.418 12.4722C21.418 10.0852 20.4698 7.79603 18.7819 6.10821C17.0941 4.42038 14.8049 3.47217 12.418 3.47217C10.031 3.47217 7.74183 4.42038 6.05401 6.10821C4.36618 7.79603 3.41797 10.0852 3.41797 12.4722Z" stroke="white" stroke-width="1.5" stroke-linecap="round" stroke-linejoin="round"/>
<path d="M12.418 8.47217V12.4722" stroke="white" stroke-width="1.5" stroke-linecap="round" stroke-linejoin="round"/>
<path d="M12.418 16.4722H12.428" stroke="white" stroke-width="1.5" stroke-linecap="round" stroke-linejoin="round"/>
</g>
<defs>
<clipPath id="clip0_34_10255">
<rect width="24" height="24" fill="white" transform="translate(0.417969 0.472168)"/>
</clipPath>
</defs>
</svg>
